<?xml version="1.0" standalone="no"?>
<!DOCTYPE svg PUBLIC "-//W3C//DTD SVG 20010904//EN"
 "http://www.w3.org/TR/2001/REC-SVG-20010904/DTD/svg10.dtd">
<svg version="1.0" xmlns="http://www.w3.org/2000/svg"
 width="260.000000pt" height="260.000000pt" viewBox="0 0 260.000000 260.000000"
 preserveAspectRatio="xMidYMid meet">
<metadata>
Created by potrace 1.14, written by Peter Selinger 2001-2017
</metadata>
<g transform="translate(0.000000,260.000000) scale(0.100000,-0.100000)"
fill="#000000" stroke="none">
<path d="M1321 2366 c-16 -19 -3 -26 51 -26 l48 0 0 -1045 0 -1045 -22 -1
c-13 -1 -31 0 -41 1 -22 2 -49 -19 -41 -31 9 -16 482 -11 546 6 183 47 302
205 334 443 41 306 -54 535 -263 632 l-71 33 61 29 c119 57 194 141 236 265
23 69 31 129 32 239 2 201 -69 359 -199 443 -95 61 -112 64 -399 67 -202 2
-264 0 -272 -10z m547 -61 c15 -18 22 -39 23 -68 4 -367 -2 -819 -12 -840 -14
-30 -55 -47 -115 -47 -39 0 -44 3 -45 23 -1 28 -1 937 0 956 1 10 15 12 64 8
51 -5 66 -11 85 -32z m1 -1016 c16 -16 21 -32 22 -77 0 -31 0 -240 0 -465 -1
-447 -1 -451 -61 -482 -16 -8 -48 -15 -72 -15 l-43 0 1 526 c1 359 4 528 11
532 23 14 121 1 142 -19z"/>
<path d="M792 2340 c-8 -6 -8 -6 -16 -80 -4 -30 -9 -66 -11 -80 -2 -14 -7 -50
-10 -80 -4 -30 -8 -66 -10 -80 -6 -44 -16 -121 -20 -166 -3 -25 -7 -57 -9 -72
-3 -15 -7 -52 -11 -82 -3 -30 -8 -66 -10 -80 -2 -14 -7 -47 -10 -75 -3 -27 -8
-61 -10 -75 -2 -14 -6 -50 -10 -81 -3 -31 -8 -67 -10 -79 -2 -13 -7 -51 -10
-84 -3 -34 -7 -68 -10 -76 -2 -8 -6 -37 -10 -65 -10 -90 -16 -139 -21 -175 -3
-19 -7 -53 -10 -75 -2 -22 -6 -58 -9 -80 -11 -82 -15 -111 -20 -152 -33 -273
-49 -320 -115 -347 -22 -9 -40 -23 -40 -31 0 -13 22 -15 140 -15 118 0 140 2
140 15 0 8 -18 22 -40 31 -49 20 -69 53 -71 120 -2 45 0 73 17 189 4 22 7 49
9 60 1 11 3 23 4 26 0 4 60 6 131 6 l130 -1 1 -40 c0 -23 2 -50 4 -61 3 -11 7
-58 11 -105 3 -47 9 -111 13 -143 l8 -57 -29 -1 c-49 -2 -53 -4 -56 -22 -3
-16 13 -17 226 -17 126 0 232 3 235 7 13 13 -16 33 -49 33 -30 0 -34 3 -35 28
0 15 -2 34 -4 43 -1 8 -6 42 -9 75 -3 32 -8 75 -11 94 -3 19 -7 55 -10 80 -3
25 -8 56 -10 70 -2 14 -7 52 -10 85 -3 33 -8 71 -10 85 -2 14 -6 50 -10 81 -3
31 -7 65 -9 75 -2 11 -7 53 -11 94 -4 41 -8 77 -10 80 -1 3 -6 36 -10 73 -3
37 -8 76 -10 85 -1 9 -6 44 -9 77 -4 33 -9 71 -11 85 -2 14 -7 52 -10 85 -3
33 -7 67 -10 75 -2 8 -6 46 -10 83 -3 37 -8 77 -10 88 -2 11 -7 46 -10 77 -7
66 -12 113 -19 162 -3 19 -8 60 -11 90 -4 30 -8 66 -10 80 -2 14 -7 50 -10 80
-4 30 -9 57 -12 60 -6 6 -142 7 -151 0z m-17 -780 c4 -47 8 -92 10 -100 2 -8
6 -51 10 -95 4 -44 8 -91 10 -105 1 -14 6 -59 9 -100 4 -41 9 -88 11 -105 4
-30 12 -103 20 -200 3 -27 7 -75 10 -105 l6 -55 -113 1 c-62 1 -118 2 -124 3
-11 1 -11 16 0 88 3 21 8 61 12 88 3 28 7 61 9 75 2 14 6 50 10 80 4 30 8 66
10 80 5 34 23 173 30 235 4 28 8 61 10 75 2 14 7 50 10 80 3 30 8 66 10 80 2
14 6 50 10 80 3 30 9 69 12 85 8 32 12 0 28 -185z"/>
</g>
</svg>
